<?xml version="1.0" standalone="no"?>
<!DOCTYPE svg PUBLIC "-//W3C//DTD SVG 20010904//EN"
 "http://www.w3.org/TR/2001/REC-SVG-20010904/DTD/svg10.dtd">
<svg version="1.0" xmlns="http://www.w3.org/2000/svg"
 width="800.000000pt" height="800.000000pt" viewBox="0 0 800.000000 800.000000"
 preserveAspectRatio="xMidYMid meet">
<metadata>
Created by potrace 1.11, written by Peter Selinger 2001-2013
</metadata>
<g transform="translate(0.000000,800.000000) scale(0.100000,-0.100000)"
fill="#000000" stroke="none">
<path d="M0 4000 l0 -4000 4000 0 4000 0 0 4000 0 4000 -4000 0 -4000 0 0
-4000z m4650 1383 c-553 -2480 -700 -3143 -700 -3147 0 -3 -138 -6 -306 -6
-286 0 -305 1 -300 18 3 9 161 716 351 1571 190 854 348 1564 351 1577 l6 24
303 0 303 0 -8 -37z m-1404 -1011 c-3 -2 -294 -117 -648 -254 -354 -138 -647
-253 -651 -257 -4 -5 169 -77 385 -160 216 -84 511 -198 655 -254 l263 -102 0
-324 c0 -255 -3 -322 -12 -318 -7 3 -483 200 -1058 437 -575 238 -1051 434
-1057 437 -10 4 -13 70 -13 282 l0 276 1068 441 1067 442 3 -321 c1 -176 0
-322 -2 -325z m2651 173 l993 -410 0 -276 0 -276 -1057 -438 c-582 -241 -1064
-440 -1070 -442 -10 -4 -13 64 -13 319 l0 324 655 254 c361 139 652 257 648
261 -6 6 -1003 397 -1250 491 l-53 19 0 324 0 324 78 -32 c42 -18 524 -217
1069 -442z"/>
</g>
</svg>
